<svg xmlns="http://www.w3.org/2000/svg" version="1.1" xmlns:xlink="http://www.w3.org/1999/xlink" width="512" height="512" x="0" y="0" viewBox="0 0 60 60" style="enable-background:new 0 0 512 512" xml:space="preserve" class=""><g><path fill="#f8fafc" d="M14.041 45.47a.5.5 0 0 1-.267-.923l6.442-4.068-8.528 4.921a.5.5 0 0 1-.521-.852l13.913-9L8.017 45.4a.5.5 0 0 1-.519-.854l14.385-9.143-16.728 9.66a.5.5 0 0 1-.511-.859l5.024-3.082-5.246 3.028a.5.5 0 0 1-.512-.858L9.919 39.6 4.28 42.854A.5.5 0 0 1 3.759 42l16.158-10.422L4.28 40.6a.5.5 0 0 1-.52-.853l12.222-7.858-11.702 6.76a.5.5 0 0 1-.522-.851l10.7-6.96L4.28 36.712a.5.5 0 0 1-.527-.849l9.835-6.543-9.308 5.373a.5.5 0 0 1-.535-.843l9.24-6.418-8.7 5.025a.5.5 0 0 1-.528-.848l4.019-2.695L4.28 30.93a.5.5 0 0 1-.551-.833l6-4.507-5.449 3.146a.5.5 0 0 1-.55-.833l3.019-2.261-2.469 1.425a.5.5 0 0 1-.588-.8l2.752-2.52L4.28 25a.5.5 0 0 1-.582-.807l.42-.374a.51.51 0 0 1-.383-.088.5.5 0 0 1-.193-.511l.312-1.429a.5.5 0 0 1-.074-.9l.5-.289a.5.5 0 0 1 .739.539l-.259 1.183 3-1.73a.5.5 0 0 1 .582.806l-.309.275 1.876-1.083a.5.5 0 0 1 .588.8l-2.756 2.523 5.759-3.326a.5.5 0 0 1 .55.834l-3.019 2.261 5.364-3.1a.5.5 0 0 1 .55.833l-6 4.508 9.255-5.341a.5.5 0 0 1 .529.849l-4.023 2.7 6.144-3.547a.5.5 0 0 1 .535.844l-9.239 6.417 12.583-7.264a.5.5 0 0 1 .527.849l-9.836 6.54 12.809-7.4a.5.5 0 0 1 .523.852l-10.694 6.962 13.532-7.813a.5.5 0 0 1 .52.854l-12.219 7.857 15.09-8.713a.5.5 0 0 1 .522.853L21.346 31.847l19.535-11.28a.5.5 0 0 1 .512.859l-6.038 3.712 6.366-3.676a.5.5 0 0 1 .511.86l-5 3.066 4.489-2.588a.5.5 0 0 1 .518.855L27.851 32.8l13.871-8.008a.5.5 0 0 1 .521.853l-13.911 9 13.246-7.648a.5.5 0 0 1 .517.856l-6.449 4.072 4.917-2.839a.5.5 0 0 1 .527.85l-9.9 6.57 8.02-4.63a.5.5 0 0 1 .522.853l-3.316 2.149 1.856-1.07a.5.5 0 0 1 .538.842l-6.15 4.32 4.3-2.485a.5.5 0 0 1 .547.835l-3.74 2.758 2.01-1.159a.5.5 0 0 1 .557.828l-1.456 1.127a.5.5 0 0 1 .583.166.5.5 0 0 1-.056.661l-1.2 1.146a.493.493 0 0 1 .318.236.5.5 0 0 1-.182.683l-2.83 1.634a.5.5 0 0 1-.595-.794l.783-.748-2.672 1.542a.5.5 0 0 1-.556-.828l1.425-1.1L26.55 45.4a.5.5 0 0 1-.55-.833l3.738-2.757-6.22 3.59a.5.5 0 0 1-.539-.841l6.148-4.328-8.953 5.169a.5.5 0 0 1-.523-.852l3.316-2.15-5.2 3a.5.5 0 0 1-.527-.849l9.9-6.571L14.291 45.4a.5.5 0 0 1-.25.07Z" opacity="1" data-original="#bfdbf0" class=""></path><path fill="#59707e" d="M10.719 45.5a.5.5 0 0 1-.306-.895l2.334-1.8-3.467 2a.5.5 0 0 1-.557-.827l4.3-3.36-3.743 2.158a.5.5 0 0 1-.552-.83l3.743-2.855-3.191 1.842a.5.5 0 0 1-.535-.844l.366-.254a.494.494 0 0 1-.5-.217.5.5 0 0 1 .116-.676l3.439-2.593-2.886 1.667a.5.5 0 0 1-.555-.829l3.775-2.908-3.22 1.858a.5.5 0 0 1-.562-.824l3.165-2.536-2.6 1.5a.5.5 0 0 1-.587-.8l1.865-1.7-1.278.738a.5.5 0 0 1-.672-.7l.861-1.352a.5.5 0 0 1-.4-.909l1.657-.956a.5.5 0 0 1 .672.7l-.847 1.33L14.07 28.6a.5.5 0 0 1 .587.8l-1.866 1.7 4.285-2.474a.5.5 0 0 1 .563.823l-3.166 2.536L18.5 29.66a.5.5 0 0 1 .556.829L15.28 33.4l3.442-1.986a.5.5 0 0 1 .55.832l-3.436 2.592 2.89-1.668a.5.5 0 0 1 .671.165.5.5 0 0 1-.136.679l-.365.253a.5.5 0 0 1 .385.89l-3.744 2.853 3.195-1.844a.5.5 0 0 1 .558.827l-4.3 3.358 3.747-2.163a.5.5 0 0 1 .556.828l-2.335 1.8 1.783-1.029a.5.5 0 0 1 .564.822l-.867.7.306-.177a.5.5 0 0 1 .653.728l-1.1 1.5.448-.258a.5.5 0 1 1 .5.865l-2.506 1.443a.5.5 0 0 1-.653-.728l1.1-1.5-3.876 2.239a.5.5 0 0 1-.564-.822l.868-.7-2.645 1.527a.491.491 0 0 1-.25.074Z" opacity="1" data-original="#7a93a0" class=""></path><path fill="#b17a65" d="M29.748 37.47a.5.5 0 0 1-.385-.82l1.774-2.139-4.993 2.883a.5.5 0 0 1-.561-.825L27.8 34.81l-3.123 1.8a.5.5 0 0 1-.553-.83L27 33.588l-2.72 1.572a.5.5 0 0 1-.566-.819l2.23-1.827-1.664.961a.5.5 0 0 1-.576-.812l.632-.543-.056.031a.5.5 0 0 1-.655-.725l.679-.937a.5.5 0 0 1-.237-.933l1.659-.957a.5.5 0 0 1 .655.727l-.571.789 2.648-1.53a.5.5 0 0 1 .576.812l-.628.541 2.359-1.362a.5.5 0 0 1 .566.82L29.1 31.224l4.193-2.424a.5.5 0 0 1 .553.831l-2.883 2.2 2.207-1.274a.5.5 0 0 1 .56.825l-2.216 1.759 1.537-.887a.5.5 0 0 1 .635.752l-1.775 2.141.977-.564a.5.5 0 0 1 .659.72l-.321.46a.493.493 0 0 1 .258.218.5.5 0 0 1-.182.684l-1.283.739a.5.5 0 0 1-.66-.719l.077-.11L30 37.4a.49.49 0 0 1-.252.07Z" opacity="1" data-original="#818cff" class=""></path><path fill="#b17a65" d="M13.132 7.489a.5.5 0 0 1-.334-.871l.306-.276L11.28 7.4a.5.5 0 0 1-.562-.824l.767-.613-.205.119a.5.5 0 0 1-.588-.8l1.663-1.532-1.075.621a.5.5 0 0 1-.711-.625l.653-1.565a.5.5 0 0 1-.389-.913L11.994.6a.5.5 0 0 1 .711.625l-.643 1.543L15.806.6a.5.5 0 0 1 .588.8l-1.665 1.53 1.993-1.15a.5.5 0 0 1 .562.824l-.765.612.21-.122a.5.5 0 0 1 .584.8l-.414.374a.494.494 0 0 1 .443.141.5.5 0 0 1 .075.606l-.413.7a.5.5 0 0 1 .241.933l-1.315.76a.5.5 0 0 1-.681-.688l.339-.573-2.206 1.275a.489.489 0 0 1-.25.067Z" opacity="1" data-original="#5e71d3" class=""></path><path fill="#b17a65" d="M13.063 22.47a.5.5 0 0 1-.267-.922l3.526-2.231-5.344 3.083a.5.5 0 0 1-.527-.85l10.475-6.935L7.44 22.4a.5.5 0 0 1-.528-.848L18.4 13.845 3.571 22.4a.5.5 0 0 1-.527-.849l10.928-7.278-12.41 7.168a.5.5 0 0 1-.523-.852l7.231-4.7-6.9 3.985a.5.5 0 0 1-.526-.85l6.982-4.643-5.073 2.93a.5.5 0 0 1-.542-.839l6.985-5.03-4.656 2.684a.5.5 0 0 1-.551-.832l3.638-2.741-1.6.922a.5.5 0 0 1-.554-.83l1.248-.955a.5.5 0 0 1-.272-.829L7.787 7.4a.5.5 0 0 1 .03-.848L9.47 5.6a.5.5 0 0 1 .618.771l-.706.77L12.057 5.6a.5.5 0 0 1 .554.829l-.5.381 2.1-1.21a.5.5 0 0 1 .551.832l-3.635 2.736L17.312 5.6a.5.5 0 0 1 .542.839l-6.988 5.031L21.034 5.6a.5.5 0 0 1 .527.849l-6.984 4.641 9.514-5.49a.5.5 0 0 1 .522.852l-7.229 4.7L27 5.6a.5.5 0 0 1 .527.849L16.6 13.724 30.681 5.6a.5.5 0 0 1 .528.848l-11.482 7.71L34.55 5.6a.5.5 0 0 1 .526.85L24.6 13.381l12.67-7.313a.5.5 0 0 1 .517.856l-3.526 2.23 3.691-2.131a.5.5 0 0 1 .523.852l-6.133 3.977 6.285-3.629a.5.5 0 0 1 .527.849l-7.149 4.772 7.386-4.264a.5.5 0 0 1 .532.846l-6.578 4.491 6.83-3.943a.5.5 0 0 1 .532.846L36.2 14.9l4.665-2.7a.5.5 0 0 1 .541.84l-4.659 3.33 4.878-2.817a.5.5 0 0 1 .547.836l-3.608 2.656 3.793-2.19a.5.5 0 0 1 .578.812l-3.75 3.246 4.115-2.378a.5.5 0 0 1 .589.8l-2.111 1.943 2.322-1.335a.5.5 0 0 1 .649.735l-1.229 1.627 1.2-.693a.5.5 0 0 1 .5.867L41.88 22.4a.5.5 0 0 1-.65-.734l1.23-1.627-4.09 2.361a.5.5 0 0 1-.589-.8l2.112-1.944-4.754 2.744a.5.5 0 0 1-.577-.811l3.75-3.246-7.028 4.057a.5.5 0 0 1-.547-.836l3.6-2.653L28.3 22.4a.5.5 0 0 1-.541-.84l4.664-3.331L25.2 22.4a.5.5 0 0 1-.532-.846l4.5-3.073-6.789 3.919a.5.5 0 0 1-.532-.846l6.58-4.493L19.18 22.4a.5.5 0 0 1-.528-.849l7.147-4.77-9.733 5.619a.5.5 0 0 1-.522-.852l6.134-3.977-8.365 4.829a.494.494 0 0 1-.25.07Z" opacity="1" data-original="#818cff" class=""></path><path fill="#f8fafc" d="M47.078 59.18a.5.5 0 0 1-.307-.9l3.073-2.394-5.191 3a.5.5 0 0 1-.532-.846l1.713-1.17-2.473 1.43a.5.5 0 0 1-.545-.837l7.506-5.469-8.958 5.171a.5.5 0 0 1-.534-.844l7.352-5.07-8.321 4.8a.5.5 0 0 1-.524-.851l5.036-3.314-5.579 3.22a.5.5 0 0 1-.523-.851l4.855-3.155-5.266 3.04a.5.5 0 0 1-.529-.847l9.56-6.454-10.182 5.873a.5.5 0 0 1-.522-.853l5.923-3.832-6.153 3.553a.5.5 0 0 1-.529-.848l11.149-7.5L35.035 49.9a.5.5 0 0 1-.515-.856l.483-.3-.386.222a.5.5 0 0 1-.521-.853l7.718-4.983-7.694 4.436a.5.5 0 0 1-.528-.847l12.544-8.4-12.53 7.234a.5.5 0 0 1-.524-.851L43.1 38.146l-9.736 5.62a.5.5 0 0 1-.526-.85l9.073-6-8.631 4.978a.5.5 0 0 1-.521-.853l3.893-2.512-3.372 1.947a.5.5 0 0 1-.522-.852l3.291-2.142-2.769 1.6a.5.5 0 0 1-.523-.852l2.194-1.43-1.671.965a.5.5 0 0 1-.527-.849l3.006-2.016-2.479 1.434a.5.5 0 0 1-.533-.845l3.427-2.351-2.894 1.67a.5.5 0 0 1-.532-.846l.782-.533-.25.143a.5.5 0 0 1-.575-.812l2.195-1.877-1.618.934a.5.5 0 0 1-.666-.711l.812-1.211a.5.5 0 0 1-.364-.92l1.7-.979a.5.5 0 0 1 .666.711l-.784 1.171 4.451-2.57a.5.5 0 0 1 .575.813L37.473 30l7.042-4.066a.5.5 0 0 1 .532.846l-.781.533 2.519-1.455a.5.5 0 0 1 .533.845l-3.431 2.355 4.587-2.648a.5.5 0 0 1 .527.849l-3 2.006 4.185-2.416a.5.5 0 0 1 .523.851l-2.193 1.43 3.338-1.93a.5.5 0 0 1 .523.852L49.08 30.2l4.611-2.662a.5.5 0 0 1 .522.853L50.326 30.9l5.3-3.057a.5.5 0 0 1 .526.85l-9.077 6 10.872-6.277a.5.5 0 0 1 .525.852l-10.01 6.558 10.256-5.922a.5.5 0 0 1 .528.849L46.7 39.151l12.02-6.941a.5.5 0 0 1 .521.853l-7.71 4.978 7.189-4.15a.5.5 0 0 1 .515.856l-.494.31a.5.5 0 0 1 .508.859L48.1 43.414l10.62-6.131a.5.5 0 0 1 .521.853l-5.927 3.834 5.406-3.12a.5.5 0 0 1 .529.846l-9.561 6.455 9.032-5.213a.5.5 0 0 1 .522.851l-4.862 3.168 4.3-2.481a.5.5 0 0 1 .524.85l-5.029 3.31 4.312-2.49a.5.5 0 0 1 .535.844l-7.353 5.072 6.3-3.64a.5.5 0 0 1 .545.837l-7.505 5.469 5.78-3.337a.5.5 0 0 1 .532.845l-1.717 1.172a.5.5 0 0 1 .539.838L52.485 55.1a.5.5 0 0 1 .186.928l-5.343 3.085a.493.493 0 0 1-.25.067Z" opacity="1" data-original="#e1efff" class=""></path><path fill="#59707e" d="M45.847 55.144a.5.5 0 0 1-.323-.882l3.153-2.662-4.5 2.6a.5.5 0 0 1-.54-.84l1.533-1.089-2.094 1.209a.5.5 0 0 1-.53-.847l.166-.112-.493.284a.5.5 0 0 1-.551-.832l6.432-4.85-7.35 4.243a.5.5 0 0 1-.546-.835l7.2-5.3-7.867 4.541a.5.5 0 0 1-.537-.841l6.6-4.647-6.9 3.987a.5.5 0 0 1-.534-.844l6.4-4.421-6.491 3.747a.5.5 0 0 1-.538-.842l8.011-5.634-7.983 4.609a.5.5 0 0 1-.53-.848l5.438-3.66-5.139 2.962a.5.5 0 0 1-.529-.848l4.306-2.9-3.832 2.208a.5.5 0 0 1-.538-.842l4.943-3.481-4.4 2.542a.5.5 0 0 1-.54-.839l3.468-2.471-2.933 1.691a.5.5 0 0 1-.55-.832l3.362-2.529-2.812 1.623a.5.5 0 0 1-.6-.787l2.259-2.246-1.657.956a.5.5 0 0 1-.653-.728l.429-.587a.5.5 0 0 1-.135-.918l1.489-.861a.5.5 0 0 1 .653.728l-.229.315 2.929-1.692a.5.5 0 0 1 .6.788L40.1 33.878l6.618-3.821a.5.5 0 0 1 .55.833l-3.367 2.532 4.859-2.8a.5.5 0 0 1 .54.84l-3.463 2.467 4.949-2.857a.5.5 0 0 1 .538.842l-4.94 3.48 6.744-3.894a.5.5 0 0 1 .529.848l-4.318 2.908 5.189-3a.5.5 0 0 1 .53.847l-5.432 3.656 5.095-2.941a.5.5 0 0 1 .538.842l-8.011 5.64 7.473-4.315a.5.5 0 0 1 .534.844l-6.4 4.421 5.863-3.384a.5.5 0 0 1 .538.842l-6.6 4.648 6.064-3.5a.5.5 0 0 1 .546.835l-7.2 5.3 6.622-3.823a.5.5 0 0 1 .551.832L48.8 47.845l5.5-3.173a.5.5 0 0 1 .53.847l-.752.508a.5.5 0 0 1 .324.907l-1.536 1.091.171-.1a.5.5 0 0 1 .572.814l-3.223 2.723a.5.5 0 0 1 .383.915l-4.673 2.7a.493.493 0 0 1-.249.067Z" opacity="1" data-original="#e8bc5b" class=""></path><path fill="#262626" d="M1.592 22.169a4.1 4.1 0 0 0 1.96.56C3.782 54.12-1.5 44.317 32.951 45.6c4.343 15.667 18 18.936 25.281 3.081C60.5 43.1 59.6 36.313 59.6 30.42c-.3-2.074-1.713-2.341-3.564-2.61a43.065 43.065 0 0 1-9.029-2.058c-1.527-.4-3.063.266-4.559.747V22.61c5.96-.583 1.284-7.08-.411-9.567-1.386-2.465-2.7-6.9-5.725-7.6-5.976-1.02-12.7.386-18.748 0C17.626 2.075 18.3-.066 13.933.5c-4.075-.436-3.611 1.763-3.5 4.948-3.671.063-5.19 5.712-6.723 8.307-1.052 1.865-4.97 6.445-2.118 8.414ZM18.4 32.623V44.4c-2.918.016-5.884-.06-8.8.209.1-4.2-.338-8.574 0-12.745.5-2.935 2.629-2.416 4.994-2.416 2.292-.283 4.315.252 3.806 3.175Zm-8.913 12c-.4.022-.162-.066 0 0Zm14.984-13.272c.352-1.793 2.026-2.036 3.576-1.767H32.8c-.9 1.693-.944 4.35-.8 6.834-5.146-.411-8.206 2.004-7.529-5.067Zm22.091-4.774C60.555 30.832 58.4 25.022 58.4 41.291a18.818 18.818 0 0 1-3.252 10.643C43.632 67.738 32.669 50.5 33.3 37.349c.211-.292.238-.762-.047-.892-.513-9.494 1.938-7.007 8.507-8.872a.39.39 0 0 0 .657-.216 9.734 9.734 0 0 1 4.145-.792Zm-5.01-2.048v2.239c-2.369.683-4.935.784-7.288 1.371a2.787 2.787 0 0 0-.514.294c-3.675.377-10.732-1.917-10.22 3.978-.77 6.9 3.733 4.971 8.56 5.18.314 2.8.215 4.343.621 6.811H19.6V33.069c0-1.274.252-2.818-.762-3.8-1.158-1.127-3.414-.719-4.838-.719-1.439 0-3.675-.413-4.839.718-.969.942-.761 2.357-.761 3.579v11.869c-5.114.448-4.155-4.9-3.952-8.32.012-4.6-.037-9 .044-13.628 12.309.123 24.655-.34 36.972-.111a11.206 11.206 0 0 0 .088 1.872Zm-30-22.052c-.234-1.441 1.527-.973 2.392-.975a16.2 16.2 0 0 1 1.721 0c1.425.309.6 2.832.785 3.944h-4.9Zm-8.88 14.945a69.577 69.577 0 0 1 3.591-6.386C7.128 9.5 7.868 7.1 9.71 6.554h20.276c2.284 0 5.8-.751 7.619.949 2.192 2.052 3.694 6.569 5.161 9.176.77 1.37 2.591 3.505.311 4.767a1.557 1.557 0 0 1-.793.071c-12.3-.333-24.812 0-37.181-.115-2.284-.157-3.759-.878-2.431-3.98Z" opacity="1" data-original="#262626" class=""></path><path fill="#262626" d="M38.1 31.39c-3 1.6-1.672 8.11-1.524 10.95.262 4.557 4.168 13.467 9.973 12.83 5.458-1.6 8.778-8.008 8.9-13.426.113-2.773 1.334-8.735-1.509-10.345a55.616 55.616 0 0 1-7.472-1.7c-2.781.101-5.533 1.482-8.368 1.691Zm8.283-.5a51.829 51.829 0 0 0 7.282 1.661c1.845 1.063.9 6.329.884 8.173.278 5.151-3.049 12.31-8.535 13.264-5.447-1.055-8.686-7.81-8.567-12.977-.061-1.921-.963-7.276.9-8.466 2.7-.187 5.395-1.545 8.038-1.653ZM11.826 11.5h22c.573 0 1.091-1 .348-1h-22c-.574 0-1.091 1-.348 1ZM9.908 17.558h26c.566 0 .881-1.116.184-1.116h-26c-.566 0-.881 1.116-.184 1.116Z" opacity="1" data-original="#262626" class=""></path><path fill="#262626" d="M43.523 45.228c1.1 1.217 4.84-5.1 6.022-6 .395-.476-.722-.9-1.087-.464q-2.269 2.721-4.537 5.444l-.441-.44c-.4-.405-1.482-.07-.957.455q.5.506 1 1.005Z" opacity="1" data-original="#262626" class=""></path></g></svg>