<svg xmlns="http://www.w3.org/2000/svg" version="1.1" xmlns:xlink="http://www.w3.org/1999/xlink" width="512" height="512" x="0" y="0" viewBox="0 0 60 60" style="enable-background:new 0 0 512 512" xml:space="preserve" class=""><g><path fill="#f8fafc" d="M27.467 12.688a.5.5 0 0 1-.35-.858l2.691-2.638-2.528 1.459a.5.5 0 0 1-.6-.79l2.5-2.437-1.9 1.094a.5.5 0 0 1-.611-.779l.53-.552a.5.5 0 0 1-.648-.615l.243-.813a.488.488 0 0 1-.2-.191.5.5 0 0 1 .183-.682l.5-.291a.5.5 0 0 1 .729.576l-.144.483 1.857-1.072a.5.5 0 0 1 .61.778l-.511.534 2.3-1.324a.5.5 0 0 1 .6.79L30.223 7.8l2.505-1.445a.5.5 0 0 1 .6.79L30.637 9.78l2.1-1.212a.5.5 0 0 1 .677.694l-.914 1.493.245-.141a.5.5 0 1 1 .5.865L31.3 12.6a.5.5 0 0 1-.677-.694l.913-1.493-3.819 2.2a.5.5 0 0 1-.25.075z" opacity="1" data-original="#c3dadc" class=""></path><path fill="#b17a65" d="M12.072 17.78a.5.5 0 0 1-.343-.864l1.2-1.13-1.471.849a.5.5 0 0 1-.656-.142.5.5 0 0 1 .078-.668l.6-.525-.655.378a.5.5 0 0 1-.632-.755l1.461-1.733a.5.5 0 0 1-.451-.89l2.419-1.4a.5.5 0 0 1 .632.755L12.8 13.383l2.64-1.524a.5.5 0 0 1 .578.81l-.6.526.756-.436a.5.5 0 0 1 .593.8l-1.206 1.132 1.485-.857a.5.5 0 1 1 .5.865l-5.226 3.017a.488.488 0 0 1-.248.064zM46.648 18.288a.5.5 0 0 1-.407-.79l1.459-2.046-2.488 1.436a.5.5 0 0 1-.594-.8l.7-.664-1.128.651a.5.5 0 0 1-.619-.771l1.282-1.392-1.966 1.135a.5.5 0 0 1-.6-.791l1.613-1.568a.483.483 0 0 1-.068-.093.5.5 0 0 1 .183-.683l1.739-1.005a.5.5 0 0 1 .6.791l-.492.478 1.32-.761a.5.5 0 0 1 .618.772l-1.28 1.391 1.958-1.13a.5.5 0 0 1 .593.8l-.7.665.815-.47a.5.5 0 0 1 .657.723L48.3 16.335a.5.5 0 0 1 .25.933l-1.652.953a.489.489 0 0 1-.25.067zM28.112 6.47a.5.5 0 0 1-.327-.878l1.5-1.3-2.854 1.649a.5.5 0 0 1-.628-.759l1.934-2.234-1.457.841a.5.5 0 0 1-.694-.664l.484-.925a.5.5 0 0 1-.237-.933L27 .6a.5.5 0 0 1 .693.665l-.419.8L29.81.6a.5.5 0 0 1 .628.759L28.5 3.59 33.339.8a.5.5 0 0 1 .577.81l-1.5 1.3 1.3-.753a.5.5 0 0 1 .586.8l-.4.36a.489.489 0 0 1 .413.141.5.5 0 0 1 .084.6l-.419.745a.5.5 0 0 1 .181.927l-1.16.67a.5.5 0 0 1-.686-.677l.318-.565L30.486 6.4a.5.5 0 0 1-.585-.8l.258-.235L28.362 6.4a.5.5 0 0 1-.25.07z" opacity="1" data-original="#bf5555" class=""></path><path fill="#59707e" d="M30.568 59.456a.5.5 0 0 1-.275-.918l6.928-4.559-9.208 5.321a.5.5 0 0 1-.515-.857l1.837-1.153-3.083 1.779a.5.5 0 0 1-.523-.85L38.253 50 23.6 58.461a.5.5 0 0 1-.522-.853l13.941-9.027-15.731 9.083a.5.5 0 0 1-.513-.857l4.86-3.007-5.684 3.281a.5.5 0 0 1-.517-.855l12.975-8.195-14.136 8.161a.5.5 0 0 1-.518-.854l15.354-9.73-16.5 9.529a.5.5 0 0 1-.51-.86l.743-.452-1.134.654a.5.5 0 0 1-.517-.855l17-10.748-17.974 10.373a.5.5 0 0 1-.512-.858l9.364-5.77-9.842 5.679a.5.5 0 0 1-.51-.861l.083-.039-.276.16a.5.5 0 0 1-.511-.86l6.787-4.16-7.081 4.088a.5.5 0 0 1-.518-.856L30.8 37.362l-20.259 11.7a.5.5 0 0 1-.51-.86l5.11-3.116L9.9 48.1a.5.5 0 0 1-.517-.856l18.642-11.737L8.99 46.5a.5.5 0 0 1-.512-.858l12.137-7.5L8.368 45.21a.5.5 0 0 1-.514-.857l13.655-8.474L7.785 43.8a.5.5 0 0 1-.518-.855L26.873 30.5 7.163 41.874a.5.5 0 0 1-.516-.856L22.314 31.2 6.752 40.18a.5.5 0 0 1-.513-.859l9.9-6.118-9.624 5.556A.5.5 0 0 1 6 37.905l18.329-11.737-18.02 10.4a.5.5 0 0 1-.519-.853l16.224-10.361-15.708 9.07a.5.5 0 0 1-.516-.857l10.032-6.285L6.44 32.7a.5.5 0 0 1-.52-.853l12.759-8.16-11.9 6.871a.5.5 0 0 1-.522-.853l12.082-7.817-10.947 6.317a.5.5 0 0 1-.524-.851l10.314-6.744-8.844 5.106a.5.5 0 0 1-.527-.849l8.664-5.793L9.8 22.928a.5.5 0 0 1-.521-.853l1.587-1.023a.5.5 0 0 1-.293-.9l4.58-3.5a.5.5 0 0 1-.215-.931l5.926-3.421a.5.5 0 0 1 .553.83l-4.048 3.089 9.424-5.441a.5.5 0 0 1 .521.853l-.346.223 2.162-1.248a.5.5 0 0 1 .528.849l-8.665 5.794 11.3-6.524a.5.5 0 0 1 .523.852l-10.309 6.74 12.407-7.163a.5.5 0 0 1 .522.853l-12.084 7.825L37.258 11.8a.5.5 0 0 1 .519.853l-12.762 8.166 14.277-8.242a.5.5 0 0 1 .516.857l-10.025 6.28 11.069-6.39a.5.5 0 0 1 .519.854L25.142 24.544 42.7 14.4a.5.5 0 0 1 .52.854l-18.327 11.74L44.5 15.677a.5.5 0 0 1 .513.858L35.1 22.661 45.6 16.6a.5.5 0 0 1 .515.856l-15.658 9.815L46.868 17.8a.5.5 0 0 1 .519.854l-19.61 12.451L48.222 19.3a.5.5 0 0 1 .513.857l-13.648 8.47 14.072-8.124a.5.5 0 0 1 .513.858l-12.135 7.5 12.429-7.175a.5.5 0 0 1 .516.855l-18.64 11.742 19.053-11a.5.5 0 0 1 .51.86l-5.115 3.119 5.121-2.956a.5.5 0 0 1 .518.855l-19.6 12.412 19.85-11.46a.5.5 0 0 1 .51.86l-6.782 4.15 6.675-3.853a.5.5 0 0 1 .509.86l-.174.105a.5.5 0 0 1 .468.882l-9.365 5.769 9.176-5.3a.5.5 0 0 1 .518.855l-17 10.751 16.8-9.7a.5.5 0 0 1 .509.86l-.723.448.334-.193a.5.5 0 0 1 .517.855L38.8 43.188l14.92-8.615a.5.5 0 0 1 .516.856l-12.978 8.2 12.38-7.147a.5.5 0 0 1 .512.857l-4.864 3.01 4.2-2.422a.5.5 0 0 1 .522.852L40.068 47.8l12.952-7.478a.5.5 0 0 1 .524.851l-12.526 8.213 11.206-6.47a.5.5 0 0 1 .515.856L50.9 44.928l.638-.368a.5.5 0 0 1 .525.85l-6.923 4.556 5.09-2.94a.5.5 0 0 1 .529.848l-4.269 2.859 1.892-1.091a.5.5 0 0 1 .547.835L45 53.375a.489.489 0 0 1 .248.215.5.5 0 0 1-.183.682l-5.925 3.421a.5.5 0 0 1-.547-.835l2.555-1.883-7.169 4.138a.5.5 0 0 1-.529-.847l4.272-2.866-6.9 3.986a.494.494 0 0 1-.254.07z" opacity="1" data-original="#e26767" class=""></path><path fill="#f8fafc" d="M31.583 55.4a.5.5 0 0 1-.285-.91l6.732-4.68-9.54 5.507a.5.5 0 0 1-.523-.851l4.867-3.166-6.445 3.721a.5.5 0 0 1-.523-.852l8.156-5.329-9.764 5.638a.5.5 0 0 1-.517-.855l5.305-3.362-6.338 3.658a.5.5 0 0 1-.519-.855l8.345-5.32-9.417 5.437a.5.5 0 0 1-.515-.857l4.676-2.924-5.37 3.1a.5.5 0 0 1-.515-.857l7.3-4.582-8.021 4.63a.5.5 0 0 1-.516-.855l9.675-6.1-10.39 6a.5.5 0 0 1-.517-.855l10.256-6.465L16.3 49.7a.5.5 0 0 1-.517-.855l11.872-7.508-12.462 7.191a.5.5 0 0 1-.515-.856l9.813-6.146-10.2 5.888a.5.5 0 0 1-.513-.857l7.386-4.587-7.613 4.394a.5.5 0 0 1-.516-.856l11.187-7.03-11.447 6.609a.5.5 0 0 1-.513-.858l6.092-3.77L12.219 44a.5.5 0 0 1-.518-.855l13.178-8.359-13.311 7.687a.5.5 0 0 1-.522-.853l16.282-10.541-16.379 9.456a.5.5 0 0 1-.521-.852l14.78-9.53-14.667 8.468a.5.5 0 0 1-.515-.857l5.374-3.339-5.019 2.9a.5.5 0 0 1-.522-.851L23.62 27.53l-13.329 7.7a.5.5 0 0 1-.515-.857L15 31.086l-4.645 2.682a.5.5 0 0 1-.526-.85l12.406-8.2L10.7 31.373a.5.5 0 0 1-.524-.852l8.367-5.459-7.284 4.2a.5.5 0 0 1-.529-.848l8.445-5.69-6.883 3.976a.5.5 0 0 1-.529-.848l4.672-3.148-2.741 1.586a.5.5 0 0 1-.562-.824l4.378-3.486a.5.5 0 0 1-.315-.928l5.418-3.128a.5.5 0 0 1 .561.824L19 20.074l9.4-5.427a.5.5 0 0 1 .529.848l-4.659 3.14 6.9-3.983a.5.5 0 0 1 .529.848l-8.45 5.694L33.9 15.04a.5.5 0 0 1 .524.852l-8.371 5.462 9.951-5.745a.5.5 0 0 1 .525.85l-12.4 8.2 14.127-8.155a.5.5 0 0 1 .516.856l-5.223 3.275 6-3.465a.5.5 0 0 1 .522.851L26.308 26.97l15.014-8.67a.5.5 0 0 1 .514.857l-5.36 3.334 5.882-3.4a.5.5 0 0 1 .521.852l-14.788 9.541 15.724-9.078a.5.5 0 0 1 .522.853L28.062 31.8l17.119-9.883a.5.5 0 0 1 .517.855l-13.182 8.356 13.665-7.889a.5.5 0 0 1 .512.858l-6.079 3.762 6.229-3.6a.5.5 0 0 1 .515.856l-11.2 7.039L47.57 25.57a.5.5 0 0 1 .514.858L40.719 31l7.4-4.271a.5.5 0 0 1 .516.857l-9.827 6.154 9.821-5.67a.5.5 0 0 1 .517.856l-11.862 7.5 11.806-6.815a.5.5 0 0 1 .516.856L39.35 36.93l10.071-5.815a.5.5 0 0 1 .517.856l-9.694 6.115 9.379-5.414a.5.5 0 0 1 .516.856L42.858 38.1l6.85-3.954a.5.5 0 0 1 .515.856l-4.7 2.936 4.169-2.407a.5.5 0 0 1 .519.855l-8.327 5.309 7.645-4.414a.5.5 0 0 1 .518.855L44.736 41.5l4.505-2.6a.5.5 0 0 1 .524.852l-8.165 5.33 7.041-4.064a.5.5 0 0 1 .522.851L44.3 45.036l3.552-2.05a.5.5 0 0 1 .535.843l-6.732 4.68 4.526-2.609a.5.5 0 0 1 .553.83l-3.877 2.965a.508.508 0 0 1 .523.243.5.5 0 0 1-.183.682l-6.339 3.659a.5.5 0 0 1-.553-.83L40 50.617l-8.168 4.716a.494.494 0 0 1-.249.067z" opacity="1" data-original="#eaf2f2" class=""></path><path fill="#b17a65" d="M30.028 37.468a.5.5 0 0 1-.395-.807l.322-.414-1.06.611a.5.5 0 0 1-.625-.763l.575-.652-.539.311a.5.5 0 0 1-.633-.754l.458-.547a.493.493 0 0 1-.248-.215.5.5 0 0 1 .183-.682l1.656-.956a.5.5 0 0 1 .633.754l-.1.122.745-.428a.5.5 0 0 1 .625.764l-.574.65.614-.355a.5.5 0 0 1 .646.74l-.524.674a.5.5 0 0 1 .152.923l-1.656.956a.49.49 0 0 1-.255.068z" opacity="1" data-original="#f2c853" class=""></path><g fill="#262626"><path d="M9.126 48.237c19.842 28.6 62.442-3.828 38.836-30.06 6.008-4.946-2.181-10.8-5.607-4.373a23.206 23.206 0 0 0-8.62-2.882V6.317c1.667-.867.912-3.392.9-4.924-.4-.978-1.446-.92-2.322-.92-2.194.41-7.08-1.37-7.048 2.1.128 1.272-.544 3.29 1 3.852v4.625a26.04 26.04 0 0 0-8.335 2.87c-1.372-2.317-3.959-4.364-6.323-1.945-3.207 1.673-1.507 4.525.432 6.444a24.312 24.312 0 0 0-2.913 29.818zm35.509-35.512c.153-.194.318-.392.464-.586.729-.852 1.641-.1 2.312.482 2.34 1.209 1.232 3.353-.239 4.766a24.114 24.114 0 0 0-3.847-3.019zm8.641 22.469c-5 44.869-67.319 17.328-39.744-17.021a23.178 23.178 0 0 1 12.922-6.567.9.9 0 0 0 1.107-.142 22.417 22.417 0 0 1 4.794.041.775.775 0 0 0 .977.115c11.421 1.795 19.904 12.105 19.944 23.574zM26.87 1.525c-.046.009-.083 0 0 0zm-.136 2.194c.071-.711-.172-1.564.156-2.193 1.992.019 3.991-.053 5.983 0 .807.846.377 2.82.258 3.932-2.017-.02-4.038 0-6.056-.007-.583-.345-.275-1.165-.341-1.732zm1 2.89v-.061h4.53v4.214a25.385 25.385 0 0 0-4.53.087zm-16.242 8.859c-1.157-1.592.836-3.217 2.193-3.737 1.455.191 2.044 1.971 3.015 2.91a24.749 24.749 0 0 0-3.642 2.793c-.518-.658-1.058-1.304-1.566-1.966z" fill="#262626" opacity="1" data-original="#262626" class=""></path><path d="M19.865 17.378c-18.28 9.8-10.86 38.2 9.834 37.957C64.615 53.021 51.422 2.4 19.865 17.378zm29.148 21.009c-2.932 19.486-30.45 21.813-37.022 3.424C2.638 9.9 52.037 5.561 49.013 38.387z" fill="#262626" opacity="1" data-original="#262626" class=""></path><path d="M30.724 25.8v-.991c-2.872-.645-.9 6.081-1.448 7.96-2.5.5-2.674 4.284 0 4.575.25.88-.643 3.081.634 3.085 1.467-.178.6-2.173.818-3.2 2.5-.492 2.676-4.269 0-4.573zm-1.158 7.6-.029.01a.143.143 0 0 1 .029-.01zm1.71 1.793a1.54 1.54 0 0 1-.849 1.4c-1.718.179-2.41-2.754-.715-3.208 0 0 .163.011.169.014a1.785 1.785 0 0 1 1.395 1.795zM29.276 19.194c.144.749-.508 2.536.793 2.062 1.138-.187.5-1.633.656-2.45a1.122 1.122 0 0 0-1.449.388zM15.726 35.439c2.985-.737-1.771-1.448-2.405-.47-.059.931 1.765.288 2.405.47zM30.444 48.607c-1.481-.393-1.492 2.194-.888 2.786 1.481.393 1.492-2.193.888-2.786zM44.276 34.568c-2.98.732 1.766 1.425 2.4.46.056-.928-1.763-.279-2.4-.46zM22.724 20.949c-.79-.385-1.968.35-.994 1.1.789.138 1.785-.297.994-1.1zM17.335 26.932c-.569-.445-1.66-.847-1.928.114.081 1.069 2.746 1.185 1.928-.114zM17.253 42.341c-.507.023-1.842.43-1.749.92.444.205 2.47-.643 1.749-.92zM22.88 47.852c-.676-.332-2.028.882-1.392 1.371.677.331 2.028-.882 1.392-1.371zM37.286 49.077a.779.779 0 1 0 1.014-1.159c-.849-.576-1.869.375-1.014 1.159zM43.979 42.425c-.763-.377-2.184.382-.8.827.695.254 2.066-.399.8-.827zM42.656 27.77c.632.473 2.846-.912 1.459-1.269-.525-.001-2.077.624-1.459 1.269zM37.134 22.2c.716.417 2.056-.958 1.364-1.473-.717-.418-2.056.957-1.364 1.473z" fill="#262626" opacity="1" data-original="#262626" class=""></path></g></g></svg>