<svg xmlns="http://www.w3.org/2000/svg" version="1.1" xmlns:xlink="http://www.w3.org/1999/xlink" width="512" height="512" x="0" y="0" viewBox="0 0 60 60" style="enable-background:new 0 0 512 512" xml:space="preserve" class=""><g><path fill="#b17a65" d="M33.326 45.066a.5.5 0 0 1-.285-.91l2.089-1.451-.978.564a.5.5 0 0 1-.558-.826l4.456-3.5-3.818 2.2a.5.5 0 0 1-.545-.836l.292-.213a.5.5 0 0 1-.539-.828l1.616-1.461-1.569.905a.5.5 0 0 1-.61-.779l.685-.714-.636.367a.5.5 0 0 1-.748-.392l-.116-1.4a.491.491 0 0 1-.445-.251.5.5 0 0 1 .185-.683l.451-.259a.5.5 0 0 1 .747.392l.109 1.335 3-1.734a.5.5 0 0 1 .611.779l-.687.715 2.6-1.5a.5.5 0 0 1 .585.8L37.6 36.849l3.932-2.27a.5.5 0 0 1 .545.837l-.269.2 1.8-1.037a.5.5 0 0 1 .559.825l-4.456 3.505 5.277-3.047a.5.5 0 0 1 .535.843l-2.09 1.453 1.861-1.074a.5.5 0 1 1 .5.865L33.576 45a.494.494 0 0 1-.25.066z" opacity="1" data-original="#895649" class=""></path><path fill="#b17a65" d="M30.027 59.469a.5.5 0 0 1-.28-.914l2.574-1.742-4.206 2.429a.5.5 0 0 1-.537-.842l8.161-5.728L25.47 58.6a.5.5 0 0 1-.527-.85l6.9-4.565-8.118 4.686a.5.5 0 0 1-.518-.854l2.417-1.536-3.051 1.761a.5.5 0 0 1-.517-.854l3.526-2.239-4.112 2.372a.5.5 0 0 1-.528-.848l11.924-7.965-12.989 7.5a.5.5 0 0 1-.561-.824l4.533-3.6-5.282 3.049a.5.5 0 0 1-.555-.833l3.552-2.742-3.986 2.3a.5.5 0 0 1-.535-.843l.062-.044-.082.047a.5.5 0 0 1-.545-.835l2.44-1.8-2.55 1.471a.5.5 0 0 1-.552-.831l3.491-2.623-3.588 2.071a.5.5 0 0 1-.549-.834l3.678-2.741-3.672 2.12a.5.5 0 0 1-.535-.843l1.659-1.156-1.449.836a.5.5 0 0 1-.536-.843l3.027-2.11-2.777 1.6a.5.5 0 0 1-.527-.848l.681-.455-.314.181a.5.5 0 0 1-.536-.843l2.8-1.951-2.369 1.364a.5.5 0 0 1-.546-.835l2.51-1.845-1.959 1.132a.5.5 0 0 1-.557-.829l1.481-1.146-.8.464a.5.5 0 0 1-.576-.812l.793-.684a.5.5 0 0 1-.672-.647l.707-1.682a.479.479 0 0 1-.146-.16.5.5 0 0 1 .183-.682l.564-.326a.5.5 0 0 1 .711.626l-.521 1.242 3.251-1.877a.5.5 0 0 1 .576.811l-.785.678 2.592-1.5a.5.5 0 0 1 .556.828l-1.479 1.147 3.431-1.982a.5.5 0 0 1 .546.836l-2.511 1.847 4.658-2.69a.5.5 0 0 1 .536.843l-2.8 1.95L27.6 35.3a.5.5 0 0 1 .527.848l-.98.654a.5.5 0 0 1 .4.9l-3.023 2.107 1.532-.884a.5.5 0 0 1 .535.843l-1.658 1.154.816-.471a.5.5 0 0 1 .549.834l-3.676 2.739 3.191-1.841a.5.5 0 0 1 .551.831l-3.492 2.639 3.364-1.942a.5.5 0 0 1 .546.835l-2.438 1.8 2.525-1.458a.5.5 0 0 1 .535.843l-.063.044.2-.114a.5.5 0 0 1 .556.828l-3.553 2.742 4.656-2.694a.5.5 0 0 1 .561.824l-4.534 3.6 20.395-11.772a.5.5 0 0 1 .527.849L34.224 48l11.488-6.632a.5.5 0 0 1 .517.855l-3.514 2.231 2.925-1.684a.5.5 0 0 1 .517.854l-2.421 1.538 1.733-1a.5.5 0 0 1 .526.85l-6.9 4.566 5.93-3.424a.5.5 0 0 1 .537.842l-8.157 5.726 6.623-3.822a.5.5 0 0 1 .531.847L41.971 51.5l.944-.545a.5.5 0 0 1 .538.842l-2.016 1.419a.5.5 0 0 1 .226.932l-8.657 5a.5.5 0 0 1-.538-.842l1.3-.912-3.491 2.006a.5.5 0 0 1-.25.069z" opacity="1" data-original="#895649" class=""></path><path fill="#77483f" d="M35.49 48.939a.5.5 0 0 1-.334-.872L38 45.516l-.4.231a.5.5 0 0 1-.6-.788l1.851-1.835-.686.4a.5.5 0 0 1-.581-.807l.45-.4a.55.55 0 0 1-.418-.2.5.5 0 0 1 .062-.663l.456-.426a.5.5 0 0 1-.538-.163.5.5 0 0 1 .017-.649l1.143-1.266-.776.448a.5.5 0 0 1-.628-.759l.612-.71-.36.207a.5.5 0 0 1-.743-.352l-.168-1.024a.5.5 0 0 1-.25-.933l.393-.226a.5.5 0 0 1 .464-.02.5.5 0 0 1 .279.371l.157.956 2.29-1.322a.5.5 0 0 1 .629.759l-.614.712.959-.563a.5.5 0 0 1 .621.768l-1.142 1.264L41.4 38a.5.5 0 0 1 .591.8l-.417.39.03-.017a.5.5 0 0 1 .581.807l-.329.292a.508.508 0 0 1 .492.187.5.5 0 0 1-.046.659l-1.851 1.835 1.222-.7a.5.5 0 0 1 .584.8L39.406 45.6l1.917-1.107a.5.5 0 1 1 .5.865l-6.083 3.514a.489.489 0 0 1-.25.067z" opacity="1" data-original="#77483f" class=""></path><path fill="#77483f" d="M29.192 55.439a.5.5 0 0 1-.292-.906l3.757-2.7-5.419 3.129a.5.5 0 0 1-.637-.748l1.143-1.407-2.415 1.393a.5.5 0 0 1-.66-.719l1-1.431-1.974 1.138a.5.5 0 0 1-.618-.771l.47-.51-.826.477a.5.5 0 0 1-.611-.78l.27-.28-.457.264a.5.5 0 0 1-.6-.788l.048-.048-.1.059a.5.5 0 0 1-.648-.735l.991-1.3-1.248.72a.5.5 0 0 1-.647-.735l1.129-1.481-1.268.732a.5.5 0 0 1-.632-.756l1.1-1.3-1.029.594a.5.5 0 0 1-.621-.769l1.123-1.239-.9.518a.5.5 0 0 1-.621-.771l1.322-1.411-.961.555a.5.5 0 0 1-.6-.791l1.28-1.242-.758.438a.5.5 0 0 1-.582-.807l1.169-1.036-.493.284a.5.5 0 0 1-.587-.8l.783-.715a.5.5 0 0 1-.633-.7l.675-1.288a.479.479 0 0 1-.109-.131.5.5 0 0 1 .182-.683l.633-.365a.5.5 0 0 1 .693.665l-.388.74 2.435-1.402a.5.5 0 0 1 .586.8l-.77.7.769-.444a.5.5 0 0 1 .583.807l-1.173 1.04a.5.5 0 0 1 .563.809l-1.28 1.245.407-.235a.5.5 0 0 1 .614.775l-1.322 1.41.733-.422a.5.5 0 0 1 .621.768L21.269 44.1l.755-.436a.5.5 0 0 1 .632.756l-1.1 1.3.942-.544a.5.5 0 0 1 .647.735l-1.125 1.474 1.242-.717a.5.5 0 0 1 .647.735l-.99 1.3 1.3-.748a.5.5 0 0 1 .6.788l-.048.048.175-.1a.5.5 0 0 1 .611.78l-.271.281.6-.345a.5.5 0 0 1 .618.772l-.47.509 1.083-.625a.5.5 0 0 1 .66.719l-1 1.432 2.818-1.626a.5.5 0 0 1 .638.748l-1.143 1.407 11.82-6.825a.5.5 0 0 1 .542.839l-3.759 2.7 2.213-1.277a.5.5 0 0 1 .561.824l-2.506 1.983a.5.5 0 0 1 .313.929l-5.53 3.192a.5.5 0 0 1-.56-.824l2.3-1.816-5.037 2.907a.491.491 0 0 1-.255.064z" opacity="1" data-original="#77483f" class=""></path><path fill="#b17a65" d="M33.747 25.5a.5.5 0 0 1-.28-.914l.527-.357-1.676.967a.5.5 0 0 1-.547-.834l6.555-4.868-4.936 2.85a.5.5 0 0 1-.546-.835l4.76-3.5-3.4 1.964a.5.5 0 0 1-.549-.833l3.864-2.881-3.283 1.894a.5.5 0 0 1-.54-.839l1.535-1.09-1.236.713a.5.5 0 0 1-.557-.828l3.962-3.095-4.1 2.365a.5.5 0 0 1-.557-.827l3.677-2.858-4.216 2.434a.5.5 0 0 1-.561-.824L35.7 10.1l-5.768 3.33a.5.5 0 0 1-.5-.866l11.7-6.753a.5.5 0 0 1 .561.824l-4.061 3.208 4.6-2.657a.5.5 0 0 1 .557.827l-3.673 2.857 4.02-2.32a.5.5 0 0 1 .557.827l-3.964 3.091 4.2-2.427a.5.5 0 0 1 .54.84l-1.536 1.091 1.467-.847a.5.5 0 0 1 .549.833l-3.865 2.883 3.835-2.214a.5.5 0 0 1 .546.835l-4.761 3.5 4.632-2.674a.5.5 0 0 1 .548.834l-6.548 4.868 6.3-3.636a.5.5 0 0 1 .53.846l-.535.363.073-.042a.5.5 0 0 1 .568.818l-3.9 3.222 3.278-1.893a.5.5 0 0 1 .555.829l-.538.414a.5.5 0 0 1 .493.776l-1.2 1.756a.5.5 0 0 1 .485.874l-1.887 1.09a.5.5 0 0 1-.663-.715l1.2-1.756-4.3 2.481a.5.5 0 0 1-.555-.829l.34-.262-1.9 1.1a.5.5 0 0 1-.569-.819l3.9-3.22L34 25.433a.494.494 0 0 1-.253.067z" opacity="1" data-original="#895649" class=""></path><path fill="#b17a65" d="M18.045 25.488a.5.5 0 0 1-.325-.88l3.827-3.275L15.2 25a.5.5 0 0 1-.534-.844l1.032-.713-.757.437a.5.5 0 0 1-.537-.842l3.196-2.246-2.98 1.718a.5.5 0 0 1-.525-.85l11.719-7.726-11.459 6.616a.5.5 0 0 1-.524-.851l10.2-6.705-9.747 5.627a.5.5 0 0 1-.522-.851l7.687-5.006-7.049 4.074a.5.5 0 0 1-.518-.856l1-.631-.287.165a.5.5 0 0 1-.527-.85l6.572-4.352-5.573 3.217a.5.5 0 0 1-.53-.846l5.814-3.927-4.48 2.586a.5.5 0 0 1-.538-.841l5.037-3.559-3.061 1.766a.5.5 0 0 1-.563-.823l3.415-2.728A.5.5 0 0 1 20 4.233l4.8-2.773a.5.5 0 0 1 .562.823l-2.808 2.244L29.339.61a.5.5 0 0 1 .538.841L24.839 5.01 32.136.8a.5.5 0 0 1 .53.847l-5.817 3.926 7.4-4.271a.5.5 0 0 1 .526.849L28.211 6.5l7.8-4.5a.5.5 0 0 1 .517.856l-1 .633 1.586-.915a.5.5 0 0 1 .523.852l-7.693 5.002 8.58-4.953a.5.5 0 0 1 .525.85l-10.195 6.7 11.083-6.4a.5.5 0 0 1 .526.85l-13.3 8.769a.507.507 0 0 1 .343.226.5.5 0 0 1-.135.677l-3.189 2.242 1.746-1.008a.5.5 0 0 1 .534.844l-1.039.717.313-.18a.5.5 0 0 1 .576.812l-3.83 3.277 3.475-2a.5.5 0 0 1 .605.785l-2.03 2.041 2.078-1.2a.5.5 0 0 1 .619.771l-.613.666.543-.313a.5.5 0 0 1 .75.426l.015 1.153a.511.511 0 0 1 .455.25.5.5 0 0 1-.184.683l-.511.295a.5.5 0 0 1-.75-.427l-.014-1.087-2.634 1.52a.5.5 0 0 1-.618-.771l.614-.668-2.5 1.444a.5.5 0 0 1-.6-.785l2.018-2.045-4.9 2.832a.491.491 0 0 1-.255.067z" opacity="1" data-original="#895649" class=""></path><g fill="#77483f"><path d="M38.005 24.47a.5.5 0 0 1-.363-.844l1.535-1.621-1.668.963a.5.5 0 0 1-.592-.8l1.548-1.454-.371.214a.5.5 0 0 1-.6-.793l1.046-1.006-.275.159a.5.5 0 0 1-.617-.772l1.287-1.386-.749.431a.5.5 0 0 1-.639-.746l1.424-1.771-1.167.673a.5.5 0 0 1-.618-.772l.725-.785-.569.328a.5.5 0 0 1-.636-.75l.946-1.15-1.017.587a.5.5 0 0 1-.628-.761l.7-.806-.863.5a.5.5 0 0 1-.652-.731l.94-1.261-1.484.856a.5.5 0 0 1-.622-.768l.522-.578-1.043.6a.5.5 0 0 1-.681-.686l1.034-1.762-2.879 1.666a.5.5 0 0 1-.593-.8l.267-.253L28.5 9.636a.5.5 0 1 1-.5-.865l5.825-3.364a.5.5 0 0 1 .594.8l-.27.255.851-.493a.5.5 0 0 1 .681.685l-1.033 1.761 2.136-1.232a.5.5 0 0 1 .622.767l-.522.579.846-.488a.5.5 0 0 1 .652.731l-.94 1.262 1.351-.779a.5.5 0 0 1 .628.761l-.7.8.822-.474a.5.5 0 0 1 .636.75l-.947 1.15 1.032-.6a.5.5 0 0 1 .617.772l-.726.786.628-.362a.5.5 0 0 1 .64.746L40 15.365l1.316-.76a.5.5 0 0 1 .617.773l-1.287 1.386.959-.554a.5.5 0 0 1 .6.793l-1.046 1.006.553-.32a.5.5 0 0 1 .592.8l-1.551 1.451.9-.518a.5.5 0 0 1 .614.776l-1.536 1.621.591-.34a.5.5 0 0 1 .69.671l-.6 1.1a.491.491 0 0 1 .091.115.5.5 0 0 1-.183.683l-.62.352a.5.5 0 0 1-.689-.672l.271-.5-2.027 1.172a.49.49 0 0 1-.25.07z" fill="#77483f" opacity="1" data-original="#77483f" class=""></path><path d="M19.616 24.487a.5.5 0 0 1-.394-.807l1-1.283-1.324.764a.5.5 0 0 1-.592-.8l.259-.244a.5.5 0 0 1-.545-.815l.949-.951-.581.334a.5.5 0 0 1-.616-.772l1.917-2.066-1.4.808a.5.5 0 0 1-.6-.791l2.629-2.562-1.818 1.05a.5.5 0 0 1-.546-.836l.611-.449a.54.54 0 0 1-.429-.224.5.5 0 0 1 .117-.676l5.915-4.426-4.29 2.479a.5.5 0 0 1-.58-.808l3.405-3a.507.507 0 0 1-.536-.239.5.5 0 0 1 .183-.683l4.11-2.373a.5.5 0 0 1 .58.808l-3.311 2.917 7.222-4.169a.5.5 0 0 1 .55.833l-5.934 4.439a.5.5 0 0 1 .5.863l-2.257 1.653a.488.488 0 0 1 .116.111.5.5 0 0 1-.05.66L21.247 15.8l.818-.472a.5.5 0 0 1 .617.773l-1.919 2.067.974-.562a.5.5 0 0 1 .605.786l-.949.951.382-.221a.5.5 0 0 1 .593.8l-.3.285a.5.5 0 0 1 .52.792l-1 1.282.792-.457a.5.5 0 0 1 .693.663l-.129.25a.492.492 0 0 1 .536.239.5.5 0 0 1-.183.682l-1.316.76a.5.5 0 0 1-.694-.663l.108-.208-1.526.881a.489.489 0 0 1-.253.059zM16.788 33.5a.5.5 0 0 1-.308-.894l2-1.565-3.214 1.859a.5.5 0 0 1-.556-.828l1.16-.9-1.632.942a.5.5 0 0 1-.653-.136.5.5 0 0 1 .064-.665l1.734-1.594-2.041 1.181a.5.5 0 0 1-.657-.721l1.886-2.657a.5.5 0 0 1 .209-.632l.5-.289a.5.5 0 0 1 .657.721l-1.112 1.568 3.975-2.296a.5.5 0 0 1 .589.8l-1.732 1.592 4.154-2.4a.5.5 0 0 1 .555.828l-1.164.9 3-1.729a.5.5 0 0 1 .558.827l-2 1.563 4.14-2.39a.5.5 0 0 1 .574.814l-2.809 2.378 5.535-3.195a.5.5 0 0 1 .581.807l-3.04 2.693 6.07-3.5a.5.5 0 0 1 .583.806l-3.065 2.73 6.132-3.54a.5.5 0 0 1 .55.832l-1.334 1 3.181-1.837a.5.5 0 0 1 .555.829l-1.794 1.381 3.834-2.213a.5.5 0 0 1 .547.83l-1.211.9 2.935-1.694a.5.5 0 0 1 .584.8l-3.041 2.729 3.691-2.13a.5.5 0 0 1 .581.807l-1.391 1.231 1.529-.883a.5.5 0 0 1 .639.746l-1.9 2.356a.5.5 0 0 1-.183.683l-.769.444a.5.5 0 0 1-.64-.746l1.032-1.283-3.52 2.032a.5.5 0 0 1-.581-.807l1.391-1.23-3.535 2.04a.5.5 0 0 1-.584-.8l3.041-2.729-6.13 3.538a.5.5 0 0 1-.548-.833l1.208-.9-3.01 1.737a.5.5 0 0 1-.555-.829l1.794-1.381L30 33.418a.5.5 0 0 1-.55-.832l1.334-1L27.6 33.42a.5.5 0 0 1-.583-.806l3.064-2.73-6.132 3.54a.5.5 0 0 1-.581-.807l3.04-2.693-6.069 3.5a.5.5 0 0 1-.573-.815l2.808-2.378-5.535 3.2a.491.491 0 0 1-.251.069z" fill="#77483f" opacity="1" data-original="#77483f" class=""></path></g><path fill="#59707e" d="M34.886 28.47a.5.5 0 0 1-.327-.878l.575-.5-2.267 1.308a.5.5 0 0 1-.623-.765l1.444-1.619-4.131 2.384a.5.5 0 0 1-.657-.724l1.477-2.052-4.811 2.776a.5.5 0 0 1-.6-.787l1.241-1.234L22.7 28.4a.5.5 0 0 1-.612-.777l1.364-1.437-3.835 2.214a.5.5 0 0 1-.6-.792l1.155-1.117-3.305 1.909a.5.5 0 0 1-.592-.8l1.04-.975-2.809 1.621a.5.5 0 0 1-.58-.809l.5-.439-.837.482a.5.5 0 0 1-.6-.074.5.5 0 0 1-.092-.6l.793-1.467-.128.073a.5.5 0 0 1-.5-.865l1.657-.956a.493.493 0 0 1 .6.074.5.5 0 0 1 .092.6l-.793 1.467 3.709-2.132a.5.5 0 0 1 .58.808l-.5.439 2.16-1.247a.5.5 0 0 1 .592.8l-1.04.976 3.072-1.776a.5.5 0 0 1 .6.792l-1.156 1.118 3.309-1.91a.5.5 0 0 1 .613.777l-1.367 1.435 3.836-2.212a.5.5 0 0 1 .6.787l-1.238 1.233 3.5-2.022a.5.5 0 0 1 .656.724l-1.477 2.052 4.81-2.776a.5.5 0 0 1 .623.765l-1.44 1.619 4.131-2.382a.5.5 0 0 1 .578.81l-.576.5 2.267-1.31a.5.5 0 0 1 .622.766l-1.437 1.6 4.1-2.368a.5.5 0 0 1 .617.772l-1.4 1.518 2.431-1.4a.5.5 0 0 1 .692.666l-.8 1.515.152-.087a.5.5 0 0 1 .5.865l-1.655.956a.5.5 0 0 1-.692-.666l.8-1.515L41.6 28.4a.5.5 0 0 1-.617-.772l1.405-1.519-3.965 2.291a.5.5 0 0 1-.622-.766l1.437-1.6-4.1 2.368a.493.493 0 0 1-.252.068zM34 36.47a.5.5 0 0 1-.318-.886l.169-.14-1.661.958a.5.5 0 0 1-.626-.762l1.458-1.66-4.2 2.422a.5.5 0 0 1-.575-.812l.506-.434L26.6 36.4a.5.5 0 0 1-.571-.816l.259-.216L24.5 36.4a.5.5 0 0 1-.617-.772l1.4-1.514-3.96 2.286a.5.5 0 0 1-.614-.775l1.378-1.463-3.878 2.238a.5.5 0 0 1-.612-.777l1.363-1.433-3.817 2.2a.5.5 0 0 1-.614-.777l1.362-1.439L13.6 35.5a.5.5 0 0 1-.692-.668l.8-1.492-.141.081a.5.5 0 0 1-.5-.865l1.657-.956a.494.494 0 0 1 .6.073.5.5 0 0 1 .094.6l-.8 1.492 3.743-2.165a.5.5 0 0 1 .614.776l-1.362 1.439 3.838-2.215a.5.5 0 0 1 .612.777L20.7 33.811l3.834-2.211a.5.5 0 0 1 .614.775l-1.377 1.462 3.876-2.237a.5.5 0 0 1 .618.772l-1.4 1.514 3.959-2.286a.5.5 0 0 1 .571.816l-.257.214 1.786-1.03a.5.5 0 0 1 .575.812l-.507.435 2.161-1.247a.5.5 0 0 1 .626.762l-1.458 1.66 4.2-2.422a.5.5 0 0 1 .568.818l-.167.138 1.657-.956a.5.5 0 0 1 .589.8l-.96.884 2.917-1.684a.5.5 0 0 1 .634.754l-1.485 1.772 3.672-2.119a.5.5 0 0 1 .618.77l-1.043 1.138 1.171-.675a.5.5 0 0 1 .634.753l-.462.555a.486.486 0 0 1 .252.216.5.5 0 0 1-.182.682l-1.655.956a.5.5 0 0 1-.633-.753l.118-.141-1.555.9a.5.5 0 0 1-.618-.77l1.041-1.137-3.3 1.907a.5.5 0 0 1-.634-.754l1.485-1.773L36.8 36.4a.5.5 0 0 1-.589-.8l.96-.884-2.918 1.684a.493.493 0 0 1-.253.07z" opacity="1" data-original="#603732" class=""></path><path fill="#262626" d="M12.267 34.057a2.334 2.334 0 0 0 1.746 2.3C7.647 66.948 52.27 66.405 46.018 36.24c1.929-.65 2.393-3.514.4-4.437a2.105 2.105 0 0 0 .038-3.864 2.293 2.293 0 0 0-.5-4.264C52.461-6.9 7.686-6.192 14 23.814c-1.985.555-2.352 3.531-.394 4.332-1.625.671-1.784 3.214-.123 3.86a2.475 2.475 0 0 0-1.216 2.051zM36 57.239c-12.525 5.816-24.489-8.734-20.61-20.711q1.392.032 2.786.039c-6.821 24.756 30.172 24.252 23.728-.045h2.641c2.131 7.812-.892 17.128-8.545 20.717zm-4.43-20.717c6.9 12.964-9.929 12.617-3.228 0 1.078-.003 2.158.001 3.23 0zm-5.84 2.491c-2.945 13.815 14.378 8.546 7.468-2.491h2.758c7.134 18.566-18.611 18.2-12.059.03q1.492-.014 2.984-.019c-.381.83-.834 1.627-1.151 2.48zM21.716 44.8c4.5 13.788 21.985 3.091 15.855-8.281h2.765c6.493 23.852-26.724 23.441-20.79.048q1.5 0 2.994-.008a11.2 11.2 0 0 0-.824 8.241zm23.35-9.325c-4.824-.829-30.92 1.875-31.324-1.44-.156-3.3 16.8-.766 20.128-1.517 3.683.009 7.373-.011 11.053 0 1.496.247 1.977 2.811.143 2.96zM23.838 2.684c12.57-6 24.683 8.852 20.774 20.856q-1.419-.021-2.838-.01c7.059-24.794-30.19-24.295-23.664 0a86.088 86.088 0 0 0-2.641.012c-2.16-7.81.8-17.127 8.369-20.858zm4.617 20.858c-6.951-13.55 9.79-12.865 3.247 0zm5.835-2.774C37.1 7.287 19.9 13 26.831 23.542h-2.758c-7.251-18.667 18.716-18.256 11.986 0h-3.046c.4-.942.925-1.821 1.277-2.774zm3.994-5.568c-4.534-13.84-22.037-3.035-15.826 8.345h-2.773C13.086-.554 46.47 0 40.434 23.537c-1.007.008-2.013 0-3.019.005a11.258 11.258 0 0 0 .869-8.342zm-20.925 9.258q13.683.008 27.369 0c9.081 5.674-24.365 2.2-26.977 3.085-4.864.944-5.812-3.95-.392-3.085zm-3.635 5.348c.335-2.866 12.145-.578 15.137-1.349 2.831.843 20.939-2.49 16.791 3.1-4.889-1.178-31.907 2.143-31.928-1.751z" opacity="1" data-original="#262626" class=""></path></g></svg>